<?xml version="1.0" standalone="no"?>
<!DOCTYPE svg PUBLIC "-//W3C//DTD SVG 20010904//EN"
 "http://www.w3.org/TR/2001/REC-SVG-20010904/DTD/svg10.dtd">
<svg version="1.0" xmlns="http://www.w3.org/2000/svg"
 width="280.000000pt" height="141.000000pt" viewBox="0 0 280.000000 141.000000"
 preserveAspectRatio="xMidYMid meet">
<metadata>
Created by potrace 1.16, written by Peter Selinger 2001-2019
</metadata>
<g transform="translate(0.000000,141.000000) scale(0.100000,-0.100000)"
fill="#000000" stroke="none">
<path d="M90 1163 l0 -148 36 -17 c33 -17 113 -18 1264 -18 1151 0 1231 1
1264 17 l36 18 0 148 0 147 -150 0 -150 0 0 -150 0 -150 -750 0 -750 0 0 150
c0 127 -2 150 -15 150 -13 0 -15 -23 -15 -150 0 -143 -1 -150 -20 -150 -19 0
-20 7 -20 150 l0 150 -365 0 -365 0 0 -147z"/>
<path d="M90 732 l0 -147 40 -13 c58 -18 2462 -18 2520 0 l40 13 0 147 0 148
-150 0 -150 0 0 -150 0 -150 -750 0 -750 0 0 150 c0 127 -2 150 -15 150 -13 0
-15 -23 -15 -150 0 -143 -1 -150 -20 -150 -19 0 -20 7 -20 150 l0 150 -365 0
-365 0 0 -148z"/>
<path d="M90 312 l0 -147 33 -15 c49 -23 2485 -23 2535 0 l32 15 0 147 0 148
-150 0 -150 0 0 -150 0 -150 -750 0 -750 0 0 150 c0 127 -2 150 -15 150 -13 0
-15 -23 -15 -150 0 -143 -1 -150 -20 -150 -19 0 -20 7 -20 150 l0 150 -365 0
-365 0 0 -148z"/>
</g>
</svg>
